<svg width="15" height="16" viewBox="0 0 15 16" fill="none" xmlns="http://www.w3.org/2000/svg">
<path d="M2.07663 1.27563L2.46312 0.840836C2.86091 0.393321 3.56014 0.393321 3.95794 0.840835L5.9884 3.12511C6.32519 3.504 6.32519 4.07495 5.9884 4.45384L4.451 6.18341C4.20843 6.45631 4.14787 6.84587 4.29616 7.17953L4.44111 7.50566C5.28242 9.39861 6.71203 10.9696 8.51749 11.9852C8.86058 12.1782 9.29178 12.106 9.5533 11.8118L10.8842 10.3145C11.282 9.86701 11.9812 9.86701 12.379 10.3145L14.4444 12.6381C14.7613 12.9946 14.7613 13.5318 14.4444 13.8882C12.4108 16.176 8.92432 16.4263 6.58483 14.4523L6.46601 14.3521C4.86511 13.0013 3.46296 11.4313 2.30107 9.68845L1.56878 8.59002C0.0554293 6.31999 0.264088 3.31474 2.07663 1.27563Z" fill="white"/>
</svg>
