<svg width="9" height="16" viewBox="0 0 9 16" fill="none" xmlns="http://www.w3.org/2000/svg">
<path fill-rule="evenodd" clip-rule="evenodd" d="M8.3828 5.27273C8.3828 5.30338 8.38259 5.33398 8.38218 5.36452C8.38259 5.39391 8.3828 5.42389 8.3828 5.45455C8.3828 8.36659 6.21715 16 4.19138 16C2.16564 16 0 8.36659 0 5.45452C0 5.42387 0.000211715 5.39389 0.000617503 5.3645C0.000211715 5.33396 0 5.30338 0 5.27273C0 2.36068 1.87656 0 4.1914 0C6.50624 0 8.3828 2.36068 8.3828 5.27273ZM4.04687 7.63636C5.32403 7.63636 6.35937 6.33392 6.35937 4.72727C6.35937 3.12063 5.32403 1.81818 4.04687 1.81818C2.76971 1.81818 1.73437 3.12063 1.73437 4.72727C1.73437 6.33392 2.76971 7.63636 4.04687 7.63636Z" fill="white"/>
</svg>
